<svg width="45" height="50" viewBox="0 0 45 50" fill="none" xmlns="http://www.w3.org/2000/svg">
<path fill-rule="evenodd" clip-rule="evenodd" d="M40.75 14.0625V34.375H37.625V14.0625H31.375C30.1318 14.0625 28.9395 13.5686 28.0604 12.6896C27.1814 11.8105 26.6875 10.6182 26.6875 9.375V3.125H9.5C8.6712 3.125 7.87634 3.45424 7.29029 4.04029C6.70424 4.62634 6.375 5.4212 6.375 6.25V34.375H3.25V6.25C3.25 4.5924 3.90848 3.00268 5.08058 1.83058C6.25268 0.65848 7.8424 0 9.5 0L26.6875 0L40.75 14.0625ZM19.3781 44.3375V42.7062C19.4005 42.0201 19.2759 41.3371 19.0125 40.7031C18.8051 40.2087 18.4547 39.7876 18.0062 39.4937C17.5665 39.2215 17.0577 39.0815 16.5406 39.0906C16.0212 39.0823 15.5104 39.2233 15.0687 39.4969C14.624 39.7918 14.2762 40.2114 14.0687 40.7031C13.8054 41.3371 13.6807 42.0201 13.7031 42.7062V44.3375C13.7031 45.1375 13.8281 45.8062 14.0687 46.3406C14.2756 46.8335 14.6235 47.2542 15.0687 47.55C15.5127 47.8168 16.0228 47.9532 16.5406 47.9437C17.0565 47.9531 17.5645 47.8166 18.0062 47.55C18.4542 47.257 18.8045 46.837 19.0125 46.3437C19.2754 45.7085 19.4 45.0246 19.3781 44.3375ZM21.8875 42.725V44.3281C21.8875 45.5 21.675 46.5156 21.2469 47.3687C20.8424 48.1908 20.2014 48.8731 19.4062 49.3281C18.6125 49.7781 17.6562 50.0031 16.5406 50.0031C15.5402 50.0294 14.5499 49.7969 13.6656 49.3281C12.8696 48.8742 12.2283 48.1916 11.825 47.3687C11.3769 46.4192 11.1575 45.3778 11.1844 44.3281V42.725C11.1844 41.5406 11.4 40.525 11.825 39.6781C12.2531 38.8219 12.8656 38.1687 13.6687 37.7187C14.4719 37.2594 15.4312 37.0312 16.5437 37.0312C17.6594 37.0312 18.6125 37.2594 19.4062 37.7187C20.2062 38.175 20.8187 38.8312 21.25 39.6875C21.675 40.5344 21.8875 41.5469 21.8875 42.725ZM0.125 49.7656V37.2687H4.68437C5.95312 37.2687 7 37.5125 7.825 38.0031C8.65 38.4906 9.2625 39.1969 9.66562 40.1281C10.0719 41.0531 10.2781 42.175 10.2781 43.4844C10.2781 44.8031 10.075 45.9344 9.66562 46.8719C9.25625 47.8125 8.63437 48.5281 7.80625 49.025C6.98125 49.5187 5.94062 49.7656 4.68437 49.7656H0.125ZM4.35625 39.2844H2.59375V47.7437H4.35312C4.93125 47.7437 5.43437 47.6562 5.8625 47.4875C6.27412 47.3222 6.63435 47.0504 6.90625 46.7C7.18125 46.3437 7.38437 45.9062 7.51875 45.3812C7.66951 44.7764 7.74094 44.1545 7.73125 43.5312C7.73125 42.5937 7.60625 41.8062 7.3625 41.1781C7.16111 40.5957 6.77199 40.0967 6.25625 39.7594C5.7625 39.4406 5.12812 39.2844 4.35 39.2844H4.35625ZM25.4687 42.7719C25.4687 41.9969 25.575 41.3344 25.7906 40.7937C25.9757 40.296 26.3027 39.8636 26.7312 39.55C27.1693 39.2558 27.6881 39.105 28.2156 39.1187C28.6844 39.1187 29.1 39.2187 29.4594 39.4219C29.8127 39.6096 30.1078 39.8906 30.3125 40.2344C30.5303 40.5958 30.6588 41.004 30.6875 41.425H33.0781V41.1969C33.0574 40.6212 32.9172 40.0562 32.6665 39.5376C32.4159 39.019 32.0601 38.5582 31.6219 38.1844C31.1721 37.8035 30.6518 37.5147 30.0906 37.3344C29.4809 37.1278 28.8407 37.0253 28.1969 37.0312C27.0875 37.0312 26.1344 37.2625 25.35 37.7281C24.5687 38.1906 23.975 38.85 23.5656 39.7062C23.1562 40.5594 22.95 41.5812 22.95 42.7625V44.3187C22.95 45.5031 23.1531 46.5187 23.5562 47.3687C23.9625 48.2156 24.5594 48.8687 25.3406 49.3281C26.1219 49.7781 27.075 50.0031 28.1969 50.0031C29.1125 50.0031 29.9312 49.8344 30.65 49.4906C31.3687 49.1469 31.9437 48.6781 32.3719 48.0719C32.803 47.4513 33.048 46.7206 33.0781 45.9656V45.7281H30.6875C30.6594 46.1313 30.5339 46.5216 30.3219 46.8656C30.112 47.1957 29.8174 47.4633 29.4687 47.6406C29.0788 47.8305 28.6492 47.9248 28.2156 47.9156C27.688 47.9315 27.1677 47.7889 26.7219 47.5062C26.2947 47.2001 25.9701 46.772 25.7906 46.2781C25.5611 45.651 25.4519 44.9863 25.4687 44.3187V42.7719ZM41.3812 37.2719H44.175L40.1906 43.5406L44.1094 49.7656H41.2719L38.6156 45.3437H38.5062L35.8438 49.7656H33.15L37.025 43.4687L33.1875 37.2687H36.1L38.7 41.7656H38.8094L41.3812 37.2687V37.2719Z" fill="#6E90B7"/>
</svg>
